<?xml version="1.0" encoding="utf-8"?>
<!-- Generator: Adobe Illustrator 24.0.2, SVG Export Plug-In . SVG Version: 6.00 Build 0)  -->
<svg version="1.0" id="Capa_1" xmlns="http://www.w3.org/2000/svg" xmlns:xlink="http://www.w3.org/1999/xlink" x="0px" y="0px"
	 viewBox="0 0 28 28" style="enable-background:new 0 0 28 28;" xml:space="preserve">
<style type="text/css">
	.st0{fill:#FFFFFF;}
</style>
<g id="Solid">
	<path class="st0" d="M13.1,21.1c0.5,0.5,1.4,0.5,1.9,0l0,0l5-5c0.5-0.5,0.5-1.4,0-1.9c-0.5-0.5-1.4-0.5-1.9,0L15.3,17V2.5
		c0-0.7-0.6-1.3-1.3-1.3c-0.7,0-1.3,0.6-1.3,1.3V17l-2.7-2.7c-0.5-0.5-1.4-0.5-1.9,0c-0.5,0.5-0.5,1.4,0,1.9L13.1,21.1z"/>
	<path class="st0" d="M25.5,12.7c-0.7,0-1.3,0.6-1.3,1.3v10.2H3.8V14c0-0.7-0.6-1.3-1.3-1.3S1.2,13.3,1.2,14v10.6
		c0,1.2,1,2.2,2.2,2.2h21.2c1.2,0,2.2-1,2.2-2.2V14C26.8,13.3,26.2,12.7,25.5,12.7z"/>
</g>
</svg>
