<?xml version="1.0" encoding="utf-8"?>
<!-- Generator: Adobe Illustrator 23.1.1, SVG Export Plug-In . SVG Version: 6.00 Build 0)  -->
<svg version="1.1" id="Capa_1" xmlns="http://www.w3.org/2000/svg" xmlns:xlink="http://www.w3.org/1999/xlink" x="0px" y="0px"
	 width="556.4px" height="203.133px" viewBox="0 0 556.4 203.133" enable-background="new 0 0 556.4 203.133" xml:space="preserve">
<path id="s" fill="#FFFFFF" d="M33.916,125.172l-0.008-0.003c-9.688-3.024-11.72-6.076-11.718-8.105
	c0.003-2.887,3.118-3.914,6.032-3.911c1.873,0.001,7.576,0.007,8.854,9.01l0.26,1.83l19.318,0.018l-0.301-2.4
	c-2.073-16.534-12.108-25.648-28.256-25.663c-15.495-0.015-25.914,8.917-25.926,22.224c-0.01,11.349,7.672,19.049,24.916,24.97
	c7.119,2.428,10.507,4.178,10.504,7.557c-0.002,1.221-0.687,4.059-7.016,4.053c-7.689-0.008-9.733-5.67-10.266-9.045l-0.284-1.797
	L0,143.891l0.337,2.428c1.074,7.718,4.21,14.169,9.073,18.653c5.319,4.907,12.434,7.399,21.149,7.407
	c16.252,0.014,27.18-9.143,27.193-22.786C57.765,134.632,45.02,128.682,33.916,125.172z"/>
<path id="a" fill="#FFFFFF" d="M110.087,96.727l-0.005,5.064c-5.038-3.119-11.664-5.637-17.558-5.643
	c-10.106-0.009-19.324,3.889-25.956,10.975c-6.512,6.957-10.103,16.494-10.113,26.855c-0.008,10.36,3.565,19.904,10.063,26.873
	c6.62,7.099,15.831,11.013,25.937,11.023c5.658,0.004,12.353-2.073,17.568-5.25l-0.004,4.703l20.299,0.018l0.068-74.599
	L110.087,96.727z M94.442,152.701c-10.421-0.01-17.978-7.817-17.968-18.565c0.01-10.747,7.581-18.54,18.002-18.531
	c10.506,0.01,17.837,7.644,17.827,18.564C112.293,145.09,104.949,152.71,94.442,152.701z"/>
<rect id="l" x="135.95" y="65.811" fill="#FFFFFF" width="20.44" height="105.548"/>
<path id="u" fill="#FFFFFF" d="M206.726,96.814l-0.04,43.491c-0.007,7.448-7.191,12.632-13.635,12.627
	c-7.606-0.008-11.792-4.35-11.784-12.229l0.04-43.911l-20.3-0.019l-0.042,46.163c-0.008,8.88,2.666,16.291,7.736,21.427
	c4.895,4.963,11.753,7.59,19.831,7.598c5.93,0.005,12.766-2.063,18.13-5.303l-0.004,4.756l20.44,0.02l0.068-74.6L206.726,96.814z"/>
<path id="_x32_" fill="#FF2B54" d="M332.514,153.481c0.934,2.699,0.817,5.592-0.35,8.678c-1.167,3.085-3.151,5.272-5.952,6.556
	c-4.515,2.188-17.429,3.408-38.747,3.664h-3.267c-20.075,0-32.759-1.157-38.047-3.471c-4.516-2.055-8.017-4.884-10.504-8.485
	c-3.581-5.27-3.735-11.311-0.467-18.127c1.711-3.471,7.003-11.503,15.872-24.105c5.756-8.099,10.231-14.525,13.422-19.283
	c3.187-4.755,6.495-10.348,9.92-16.778c3.421-6.426,5.055-10.925,4.901-13.499c-0.313-2.699-1.09-4.305-2.334-4.82
	c-2.023-0.771-7.235,1.223-15.638,5.978c-3.735,2.058-6.383,3.408-7.937,4.049c-6.849,2.701-12.061,2.444-15.639-0.771
	c-1.867-1.799-2.764-4.146-2.683-7.038c0.076-2.893,1.283-5.69,3.617-8.389c2.954-3.727,7.703-7.102,14.238-10.124
	c6.536-3.019,12.605-4.918,18.207-5.689c16.492-2.184,28.163-1.157,35.012,3.086c4.512,2.829,7.079,6.942,7.703,12.341
	c0.31,3.601-0.197,7.714-1.517,12.342c-1.324,4.628-3.659,9.901-7.002,15.813c-3.349,5.915-6.226,10.735-8.637,14.463
	c-2.414,3.73-5.875,8.871-10.387,15.426c-10.584,15.687-15.872,25.07-15.872,28.156c0.153,1.156,0.776,2.121,1.867,2.892
	c4.201,2.959,17.659,3.537,40.381,1.736c5.288-0.386,8.713-0.58,10.271-0.58C327.922,147.502,331.114,149.498,332.514,153.481"/>
<path id="red" fill="#FF2B54" d="M556.13,51.17l-16.492,115.862c-2.076,14.583-15.573,24.753-30.197,22.671l-55.227-7.86
	l-20.901,21.29l-14.13-26.276l-55.187-7.856c-14.623-2.081-24.789-15.619-22.713-30.203l16.493-115.862
	C359.851,8.353,373.39-1.811,388.013,0.27l145.444,20.703C548.081,23.055,558.205,36.587,556.13,51.17"/>
<path id="hand" fill="#FFFFFF" d="M481.722,93.702c-0.758-0.276-1.54-0.471-2.308-0.58c-0.986-0.141-1.964-0.141-2.931-0.026
	c0.242-4.746-2.602-9.316-7.289-11.045c-0.758-0.277-1.54-0.471-2.308-0.58c-0.795-0.114-1.575-0.127-2.366-0.072l8.692-23.558
	c2.522-6.812-0.971-14.381-7.783-16.902c-0.889-0.336-1.807-0.565-2.711-0.694c-6-0.853-11.992,2.557-14.178,8.48l-7.093,19.201
	l-1.454-20.418c-0.447-6.298-5.249-11.244-11.249-12.099c-0.905-0.129-1.85-0.165-2.797-0.091
	c-7.244,0.521-12.709,6.802-12.191,14.06l2.652,37.444l6.657,0.949l-2.757-38.858c-0.255-3.615,2.474-6.776,6.102-7.029
	c0.465-0.031,0.939-0.02,1.405,0.047c3.042,0.432,5.405,2.977,5.626,6.042l1.454,20.418l1.502,21.263l3.836,0.546l7.389-19.998
	l7.094-19.201c1.069-2.895,4.047-4.666,7.088-4.232c0.466,0.066,0.924,0.187,1.362,0.347c3.4,1.253,5.152,5.052,3.899,8.452
	l-13.578,36.77l-2.721,7.328l-31.427-4.473c-5.397-0.768-10.389,2.98-11.158,8.377l-1.576,11.07l-1.297,9.11
	c-2.355,16.55,9.149,31.856,25.686,34.21l16.932,2.411c16.549,2.356,31.857-9.149,34.21-25.685l2.285-16.056l3.909-10.569
	C490.482,102.273,487.512,95.84,481.722,93.702 M479.448,99.863c1.154,0.43,2.068,1.274,2.58,2.394
	c0.511,1.121,0.556,2.372,0.14,3.528l-5.93,16.041c-0.749,2.018-2.828,3.274-4.952,2.971c-0.33-0.047-0.638-0.133-0.957-0.248
	c-1.155-0.43-2.07-1.273-2.581-2.394c-0.511-1.121-0.557-2.372-0.14-3.528l5.93-16.04c0.749-2.019,2.829-3.273,4.953-2.972
	C478.803,99.674,479.128,99.748,479.448,99.863 M460.996,90.934c0.75-2.019,2.829-3.274,4.952-2.972
	c0.329,0.047,0.638,0.133,0.957,0.248c1.155,0.43,2.069,1.273,2.581,2.395c0.51,1.121,0.556,2.371,0.14,3.528l-4.225,11.419
	c-1.863-2.529-4.675-4.37-7.992-4.926l2.594-7.038L460.996,90.934z M448.85,153.877l-16.933-2.41
	c-12.932-1.841-21.942-13.858-20.103-26.777l1.297-9.11l1.575-11.069c0.256-1.795,1.931-3.052,3.725-2.797l37.77,5.377
	c3.232,0.46,5.489,3.465,5.028,6.697c-0.46,3.234-3.464,5.489-6.698,5.029l-22.796-3.245l-0.926,6.508l0.658,0.094
	c6.11,0.869,10.363,6.534,9.494,12.644l-0.65,4.562l6.507,0.927l0.65-4.563c0.596-4.191-0.322-8.25-2.357-11.629l8.481,1.207
	c2.781,0.397,5.475-0.171,7.766-1.437c1.06,3.057,3.42,5.63,6.687,6.836c0.757,0.275,1.54,0.47,2.307,0.58
	c1.973,0.28,3.94,0.015,5.734-0.708l-0.451,3.165C473.787,146.692,461.783,155.718,448.85,153.877"/>
</svg>
